<svg width="42" height="31" viewBox="0 0 42 31" fill="none" xmlns="http://www.w3.org/2000/svg">
<path d="M11 9.5C11 7.01472 13.0147 5 15.5 5C17.9853 5 20 7.01472 20 9.5V26.5C20 28.9853 17.9853 31 15.5 31C13.0147 31 11 28.9853 11 26.5V9.5Z" fill="#AD2831"/>
<path d="M22 4.5C22 2.01472 24.0147 0 26.5 0C28.9853 0 31 2.01472 31 4.5V21.5C31 23.9853 28.9853 26 26.5 26C24.0147 26 22 23.9853 22 21.5V4.5Z" fill="#AD2831"/>
<path d="M33 7.5C33 5.01472 35.0147 3 37.5 3C39.9853 3 42 5.01472 42 7.5C42 9.98528 39.9853 12 37.5 12C35.0147 12 33 9.98528 33 7.5Z" fill="#AD2831"/>
<path d="M0 11.5C0 9.01472 2.01472 7 4.5 7C6.98528 7 9 9.01472 9 11.5C9 13.9853 6.98528 16 4.5 16C2.01472 16 0 13.9853 0 11.5Z" fill="#AD2831"/>
</svg>
