<svg width="500" height="500" viewBox="0 0 500 500" fill="none" xmlns="http://www.w3.org/2000/svg">
<rect width="500" height="500" rx="5" fill="#0A090C"/>
<path d="M166.667 195.833C166.667 175.122 183.456 158.333 204.167 158.333C224.877 158.333 241.667 175.122 241.667 195.833V337.499C241.667 358.21 224.877 374.999 204.167 374.999C183.456 374.999 166.667 358.21 166.667 337.499V195.833Z" fill="#AD2831"/>
<path d="M258.333 154.166C258.333 133.455 275.123 116.666 295.833 116.666C316.544 116.666 333.333 133.455 333.333 154.166V295.833C333.333 316.543 316.544 333.333 295.833 333.333C275.123 333.333 258.333 316.543 258.333 295.833V154.166Z" fill="#AD2831"/>
<path d="M350 179.166C350 158.455 366.789 141.666 387.5 141.666C408.211 141.666 425 158.455 425 179.166C425 199.877 408.211 216.666 387.5 216.666C366.789 216.666 350 199.877 350 179.166Z" fill="#AD2831"/>
<path d="M75 212.499C75 191.789 91.7893 174.999 112.5 174.999C133.211 174.999 150 191.789 150 212.499C150 233.21 133.211 249.999 112.5 249.999C91.7893 249.999 75 233.21 75 212.499Z" fill="#AD2831"/>
</svg>
