<svg width="50" height="37" viewBox="0 0 50 37" fill="none" xmlns="http://www.w3.org/2000/svg">
<path d="M13.0952 11.3387C13.0952 8.37241 15.4937 5.96774 18.4524 5.96774C21.411 5.96774 23.8095 8.37241 23.8095 11.3387V31.629C23.8095 34.5953 21.411 37 18.4524 37C15.4937 37 13.0952 34.5953 13.0952 31.629V11.3387Z" fill="black"/>
<path d="M26.1905 5.37097C26.1905 2.40466 28.589 0 31.5476 0C34.5063 0 36.9048 2.40466 36.9048 5.37097V25.6613C36.9048 28.6276 34.5063 31.0323 31.5476 31.0323C28.589 31.0323 26.1905 28.6276 26.1905 25.6613V5.37097Z" fill="black"/>
<path d="M39.2857 8.95161C39.2857 5.98531 41.6842 3.58065 44.6429 3.58065C47.6015 3.58065 50 5.98531 50 8.95161C50 11.9179 47.6015 14.3226 44.6429 14.3226C41.6842 14.3226 39.2857 11.9179 39.2857 8.95161Z" fill="black"/>
<path d="M0 13.7258C0 10.7595 2.39847 8.35484 5.35714 8.35484C8.31581 8.35484 10.7143 10.7595 10.7143 13.7258C10.7143 16.6921 8.31581 19.0968 5.35714 19.0968C2.39847 19.0968 0 16.6921 0 13.7258Z" fill="black"/>
</svg>
